Coordinates
version=1
nRows=24
nColumns=38
inDegrees=no

Units are S.I. units (second, meters, Newtons, ...)
If the header above contains a line with 'inDegrees', this indicates whether rotational values are in degrees (yes) or radians (no).

endheader
time	pelvis_tilt	pelvis_list	pelvis_rotation	pelvis_tx	pelvis_ty	pelvis_tz	hip_flexion_r	hip_adduction_r	hip_rotation_r	knee_angle_r	ankle_angle_r	subtalar_angle_r	mtp_angle_r	hip_flexion_l	hip_adduction_l	hip_rotation_l	knee_angle_l	ankle_angle_l	subtalar_angle_l	mtp_angle_l	lumbar_extension	lumbar_bending	lumbar_rotation	arm_flex_r	arm_add_r	arm_rot_r	elbow_flex_r	pro_sup_r	wrist_flex_r	wrist_dev_r	arm_flex_l	arm_add_l	arm_rot_l	elbow_flex_l	pro_sup_l	wrist_flex_l	wrist_dev_l
7.51	-0.0849672	1.28541	1.6494	0.5913	0.651313	1.0103	0.597069	-0.084659	0.277322	0.795003	-0.200121	0	0	0.224899	0.0334975	-0.00820794	0.223178	-0.210694	0	0	-0.241854	-0.0655533	0.164159	0.589702	-0.558845	0.282779	0.739951	0.971255	0	0	0.875846	0.0823315	0.234442	0.324538	1.5708	0	0
7.52	-0.0788458	1.2834	1.6452	0.590701	0.653398	1.01015	0.607999	-0.0806952	0.284748	0.814317	-0.215282	0	0	0.225541	0.0326432	-0.00659827	0.223711	-0.209609	0	0	-0.239548	-0.0627905	0.166087	0.565447	-0.548149	0.227718	0.750118	1.04955	0	0	0.862689	0.084047	0.224788	0.335553	1.5708	0	0
7.53	-0.0722914	1.28268	1.64091	0.590169	0.655556	1.01008	0.616946	-0.0769098	0.289622	0.832421	-0.220395	0	0	0.224516	0.0314853	-0.00501992	0.223605	-0.208845	0	0	-0.238119	-0.0602903	0.168207	0.546007	-0.545344	0.201081	0.759052	1.06863	0	0	0.85253	0.085921	0.224123	0.340179	1.5708	0	0
7.54	-0.0651456	1.28139	1.63631	0.589696	0.657794	1.00994	0.626077	-0.0732949	0.293219	0.849148	-0.223702	0	0	0.223955	0.0300932	-0.00308829	0.22337	-0.208113	0	0	-0.235948	-0.0576782	0.170058	0.525978	-0.541785	0.174234	0.76801	1.08808	0	0	0.84083	0.0872827	0.222177	0.346744	1.5708	0	0
7.55	-0.0573534	1.2797	1.63141	0.589265	0.660109	1.00976	0.634725	-0.0697976	0.295524	0.863756	-0.224332	0	0	0.223743	0.0284813	-0.000680398	0.223061	-0.207492	0	0	-0.233304	-0.0547525	0.171418	0.50551	-0.537459	0.147312	0.777625	1.10789	0	0	0.827398	0.0882425	0.217412	0.355535	1.5708	0	0
7.56	-0.0489876	1.27764	1.62607	0.588893	0.662495	1.00958	0.643065	-0.0664805	0.296147	0.876348	-0.222586	0	0	0.22387	0.0267111	0.00177981	0.222723	-0.206927	0	0	-0.230398	-0.0515325	0.172214	0.485218	-0.532072	0.119969	0.788582	1.12789	0	0	0.811888	0.0886859	0.208772	0.367384	1.5708	0	0
7.57	-0.0396285	1.27543	1.61971	0.588588	0.664926	1.00943	0.651126	-0.0633996	0.295155	0.887081	-0.218929	0	0	0.224076	0.0246043	0.00412815	0.222205	-0.206465	0	0	-0.227604	-0.0479215	0.172514	0.465819	-0.525553	0.0922134	0.800803	1.1475	0	0	0.793772	0.0885512	0.195352	0.384375	1.5708	0	0
7.58	-0.029521	1.27306	1.61237	0.588343	0.66744	1.0093	0.658636	-0.0603933	0.293569	0.895522	-0.213078	0	0	0.224076	0.0221962	0.00665171	0.221112	-0.206227	0	0	-0.225018	-0.0438801	0.172324	0.447502	-0.518874	0.066027	0.814382	1.16646	0	0	0.773251	0.087966	0.175629	0.407639	1.5708	0	0
7.59	-0.0191126	1.27052	1.60431	0.588157	0.670043	1.00922	0.665252	-0.0573922	0.292133	0.901176	-0.205811	0	0	0.223834	0.0195937	0.00928491	0.219439	-0.206172	0	0	-0.222828	-0.0395085	0.171484	0.430894	-0.512361	0.0424657	0.828138	1.18655	0	0	0.750908	0.0869503	0.150805	0.437136	1.5708	0	0
7.6	-0.00904463	1.26747	1.5962	0.588026	0.672676	1.00913	0.672228	-0.0544758	0.290599	0.905101	-0.197328	0	0	0.22376	0.0169782	0.0123789	0.217216	-0.206371	0	0	-0.221109	-0.0350442	0.169983	0.415555	-0.504998	0.0184335	0.842451	1.2077	0	0	0.727288	0.0853547	0.123999	0.472373	1.5708	0	0
7.61	-0.000236388	1.26481	1.58851	0.588037	0.675272	1.00909	0.678944	-0.0513864	0.289773	0.907434	-0.191896	0	0	0.22321	0.0145367	0.0146825	0.215026	-0.20664	0	0	-0.219312	-0.0313621	0.170754	0.401643	-0.500248	0.000158613	0.853988	1.21881	0	0	0.711497	0.0841132	0.112782	0.494732	1.5708	0	0
7.62	0.00711314	1.26167	1.58144	0.588171	0.677908	1.00901	0.686042	-0.0483543	0.289625	0.907758	-0.18734	0	0	0.222806	0.0123809	0.0163316	0.21214	-0.207089	0	0	-0.216947	-0.0283684	0.172467	0.388445	-0.496306	-0.0158309	0.864803	1.22791	0	0	0.69818	0.0829101	0.105712	0.512859	1.5708	0	0
7.63	0.0128084	1.25815	1.57536	0.588404	0.680617	1.00886	0.693562	-0.045733	0.289908	0.906284	-0.184223	0	0	0.222368	0.0105696	0.0176408	0.208636	-0.207723	0	0	-0.213878	-0.0262539	0.175033	0.37557	-0.493097	-0.0300298	0.875015	1.235	0	0	0.687256	0.0820273	0.102092	0.526455	1.5708	0	0
7.64	0.0168663	1.25418	1.57019	0.588741	0.68336	1.00863	0.702217	-0.0436597	0.290314	0.903725	-0.182549	0	0	0.222043	0.00902707	0.0185267	0.20473	-0.208392	0	0	-0.20991	-0.0250923	0.17857	0.362953	-0.490572	-0.0428907	0.884477	1.24041	0	0	0.67822	0.0816333	0.100889	0.536643	1.5708	0	0
7.65	0.0199301	1.24999	1.56559	0.58916	0.686155	1.00834	0.710939	-0.0416231	0.290546	0.899797	-0.181291	0	0	0.22158	0.0076039	0.0189397	0.20041	-0.209052	0	0	-0.205404	-0.0244874	0.182654	0.350786	-0.488487	-0.0547929	0.893113	1.2446	0	0	0.670304	0.0814614	0.10163	0.544943	1.5708	0	0
7.66	0.0219351	1.24564	1.56179	0.589624	0.688989	1.008	0.719216	-0.0396923	0.291462	0.893739	-0.180449	0	0	0.220972	0.00643012	0.0192059	0.195723	-0.209842	0	0	-0.200465	-0.024262	0.187069	0.339231	-0.486903	-0.0656444	0.90069	1.24823	0	0	0.662941	0.0813757	0.104107	0.552175	1.5708	0	0
7.67	0.0235846	1.24137	1.55829	0.590121	0.691867	1.00764	0.727104	-0.0379226	0.292244	0.886278	-0.180836	0	0	0.220122	0.00530299	0.019165	0.190786	-0.21086	0	0	-0.195451	-0.024078	0.191546	0.328481	-0.485683	-0.0756552	0.907076	1.25103	0	0	0.65594	0.0814709	0.107201	0.558461	1.5708	0	0
7.68	0.0256632	1.23732	1.55464	0.590628	0.694781	1.0073	0.734573	-0.0365886	0.292032	0.877455	-0.182736	0	0	0.219019	0.00400176	0.0191874	0.185781	-0.211904	0	0	-0.190752	-0.0234509	0.195804	0.318123	-0.485117	-0.084677	0.913275	1.25208	0	0	0.64898	0.081502	0.110678	0.564552	1.5708	0	0
7.69	0.0283432	1.23337	1.55076	0.591121	0.697738	1.00697	0.741707	-0.0357031	0.29124	0.867499	-0.185182	0	0	0.217779	0.00246921	0.0194286	0.180657	-0.212948	0	0	-0.186286	-0.0222456	0.199749	0.307538	-0.485339	-0.0923805	0.920101	1.25101	0	0	0.641714	0.0813354	0.114088	0.570748	1.5708	0	0
7.7	0.0315587	1.22969	1.54663	0.591608	0.700726	1.00665	0.748448	-0.0351803	0.290396	0.856638	-0.187652	0	0	0.216271	0.000749349	0.0196783	0.175624	-0.21379	0	0	-0.182189	-0.0205484	0.203488	0.295988	-0.486339	-0.0981568	0.928123	1.24725	0	0	0.634215	0.0808942	0.117541	0.576778	1.5708	0	0
7.71	0.0351788	1.22659	1.54234	0.592097	0.703764	1.00636	0.754491	-0.035072	0.289126	0.844929	-0.189224	0	0	0.214295	-0.00107167	0.0195635	0.171249	-0.214142	0	0	-0.178575	-0.0184617	0.206995	0.283767	-0.487593	-0.10247	0.936495	1.23844	0	0	0.626738	0.0800858	0.121018	0.582014	1.5708	0	0
7.72	0.0399413	1.22188	1.5374	0.592508	0.706978	1.00604	0.761031	-0.0351049	0.286809	0.830814	-0.194959	0	0	0.212987	-0.00316579	0.0216593	0.164365	-0.217495	0	0	-0.176113	-0.0149307	0.201975	0.276242	-0.476088	-0.119297	0.945671	1.29809	0	0	0.602684	0.0767781	0.0936963	0.61701	1.5708	0	0
7.73	0.0441713	1.21849	1.53315	0.592979	0.710159	1.00576	0.766163	-0.0355259	0.284111	0.81651	-0.19653	0	0	0.210625	-0.00523212	0.0232752	0.158658	-0.218976	0	0	-0.173106	-0.0120615	0.202684	0.263729	-0.471905	-0.129809	0.955554	1.30708	0	0	0.589289	0.0738924	0.0903222	0.632321	1.5708	0	0
7.74	0.0485788	1.21487	1.52874	0.593475	0.713349	1.00545	0.771837	-0.0361065	0.28102	0.802263	-0.197935	0	0	0.208551	-0.00738319	0.0246034	0.153077	-0.220318	0	0	-0.170298	-0.00888113	0.20305	0.250925	-0.467168	-0.140415	0.966449	1.31592	0	0	0.574491	0.0705792	0.0856697	0.649906	1.5708	0	0
